<!DOCTYPE svg PUBLIC "-//W3C//DTD SVG 1.1//EN" "http://www.w3.org/Graphics/SVG/1.1/DTD/svg11.dtd">
                <svg xmlns="http://www.w3.org/2000/svg" xmlns:xlink="http://www.w3.org/1999/xlink" 
                width="732" height="733">
                
                <g>
                   <rect x="50" y="65"
            width="365.4" height="30"
            rx="3" ry="3"
            style="fill:#90caf9; stroke:#444; stroke-width:1" />
                   <title>const NON_PRESENTE = Symbol(&apos;non presente&apos;)</title>
            <text x="65" y="85"
                font-family="monospace" font-size="13" fill="#222">
                <tspan x="65" y="85">const NON_PRESENTE = Symbol(&apos;non presente&apos;)</tspan>
            </text>
                   
                   
                </g>
            <g>
                <rect x="50" y="128.5"
            width="323" height="30"
            style="fill:#a5d6a7; stroke:#444; stroke-width:1" />
                    
                <line x1="60" y1="128.5" x2="60" y2="158.5"
                style="fill:#a5d6a7; stroke:#444; stroke-width:1" />
                <line x1="363" y1="128.5" x2="363" y2="158.5"
                style="fill:#a5d6a7; stroke:#444; stroke-width:1" />
             
                <title>ricerca_lineare = function(A, n, v)</title>
            <text x="75" y="148.5"
                font-family="monospace" font-size="13" fill="#222">
                <tspan x="75" y="148.5">ricerca_lineare = function(A, n, v)</tspan>
            </text>
                
            </g>
                <g>
                   <rect x="87" y="177"
            width="162.6" height="30"
            rx="3" ry="3"
            style="fill:#90caf9; stroke:#444; stroke-width:1" />
                   <title>let posizione = 0</title>
            <text x="102" y="197"
                font-family="monospace" font-size="13" fill="#222">
                <tspan x="102" y="197">let posizione = 0</tspan>
            </text>
                   
                   
                </g><g>

            <rect x="117" y="260.5"
            width="161.39999999999998" height="30"
            rx="3" ry="3"
            style="fill:#b39ddb; stroke:#444; stroke-width:1" />
            <polygon points="87,275.5 117,245.5 147,275.5 117,305.5"
            style="fill:#b39ddb; stroke:#444; stroke-width:1" />
                
            <title>posizione &lt; n</title>
            <text x="162" y="280.5"
                font-family="monospace" font-size="13" fill="#222">
                <tspan x="162" y="280.5">posizione &lt; n</tspan>
            </text>
            
            <text x="97.5" y="280.5"
        font-family="monospace" font-size="13" fill="#222">while</text>
        </g>
                <g>
                   <rect x="137" y="315.5"
            width="279.6" height="30"
            rx="3" ry="3"
            style="fill:#90caf9; stroke:#444; stroke-width:1" />
                   <title>elemento_corrente = A[posizione]</title>
            <text x="152" y="335.5"
                font-family="monospace" font-size="13" fill="#222">
                <tspan x="152" y="335.5">elemento_corrente = A[posizione]</tspan>
            </text>
                   
                   
                </g><g>
            <rect x="167" y="379"
            width="255" height="30"
            rx="3" ry="3"
            style="fill:#ce93d8; stroke:#444; stroke-width:1" />                
            <polygon points="137,394 167,364 197,394 167,424"
            style="fill:#ce93d8; stroke:#444; stroke-width:1" />
            <title>(elemento_corrente === v)</title>
            <text x="212" y="399"
                font-family="monospace" font-size="13" fill="#222">
                <tspan x="212" y="399">(elemento_corrente === v)</tspan>
            </text>
            
            <text x="159.2" y="399"
        font-family="monospace" font-size="13" fill="#222">if</text> <text x="174.8" y="425.95"
        font-family="monospace" font-size="13" fill="#222">+</text> <text x="425.9" y="392.05"
        font-family="monospace" font-size="13" fill="#222">-</text>
        </g>
            <g>
                <rect x="187" y="434"
            width="154.8" height="30"
            rx="3" ry="3"
            style="fill:#90caf9; stroke:#444; stroke-width:1" />
                
                <line x1="341.8" y1="444" x2="346.8" y2="444"
                style="fill:#a5d6a7; stroke:#444; stroke-width:1" />
                
                <line x1="341.8" y1="454" x2="346.8" y2="454"
                style="fill:#a5d6a7; stroke:#444; stroke-width:1" />

                <path d="M346.8, 438 L362.8, 449 L346.8, 460 Z" 
        fill="#a5d6a7" stroke="#444" stroke-width="1" />
                             
                <title>return posizione</title>
            <text x="202" y="454"
                font-family="monospace" font-size="13" fill="#222">
                <tspan x="202" y="454">return posizione</tspan>
            </text>
                
            </g>
                <g>
                   <rect x="482" y="434"
            width="225" height="30"
            rx="3" ry="3"
            style="fill:#90caf9; stroke:#444; stroke-width:1" />
                   <title>posizione = posizione + 1</title>
            <text x="497" y="454"
                font-family="monospace" font-size="13" fill="#222">
                <tspan x="497" y="454">posizione = posizione + 1</tspan>
            </text>
                   
                   
                </g>
            <g>
                <rect x="87" y="484"
            width="178.2" height="30"
            rx="3" ry="3"
            style="fill:#90caf9; stroke:#444; stroke-width:1" />
                
                <line x1="265.2" y1="494" x2="270.2" y2="494"
                style="fill:#a5d6a7; stroke:#444; stroke-width:1" />
                
                <line x1="265.2" y1="504" x2="270.2" y2="504"
                style="fill:#a5d6a7; stroke:#444; stroke-width:1" />

                <path d="M270.2, 488 L286.2, 499 L270.2, 510 Z" 
        fill="#a5d6a7" stroke="#444" stroke-width="1" />
                             
                <title>return NON_PRESENTE</title>
            <text x="102" y="504"
                font-family="monospace" font-size="13" fill="#222">
                <tspan x="102" y="504">return NON_PRESENTE</tspan>
            </text>
                
            </g>
                <g>
                   <rect x="50" y="532.5"
            width="279.6" height="30"
            rx="3" ry="3"
            style="fill:#90caf9; stroke:#444; stroke-width:1" />
                   <title>const sequenza = [5, 1, 4, 2, 3]</title>
            <text x="65" y="552.5"
                font-family="monospace" font-size="13" fill="#222">
                <tspan x="65" y="552.5">const sequenza = [5, 1, 4, 2, 3]</tspan>
            </text>
                   
                   
                </g>
                <g>
                   <rect x="50" y="581"
            width="295.2" height="30"
            rx="3" ry="3"
            style="fill:#90caf9; stroke:#444; stroke-width:1" />
                   <title>const dimensione = sequenza.length</title>
            <text x="65" y="601"
                font-family="monospace" font-size="13" fill="#222">
                <tspan x="65" y="601">const dimensione = sequenza.length</tspan>
            </text>
                   
                   
                </g>
                <g>
                   <rect x="50" y="629.5"
            width="443.4" height="30"
            rx="3" ry="3"
            style="fill:#90caf9; stroke:#444; stroke-width:1" />
                   <title>posizione = ricerca_lineare(sequenza, dimensione, 2)</title>
            <text x="65" y="649.5"
                font-family="monospace" font-size="13" fill="#222">
                <tspan x="65" y="649.5">posizione = ricerca_lineare(sequenza, dimensione, ...</tspan>
            </text>
                   
                   
                </g>
                <g>
                   <rect x="50" y="678"
            width="443.4" height="30"
            rx="3" ry="3"
            style="fill:#90caf9; stroke:#444; stroke-width:1" />
                   <title>posizione = ricerca_lineare(sequenza, dimensione, 9)</title>
            <text x="65" y="698"
                font-family="monospace" font-size="13" fill="#222">
                <tspan x="65" y="698">posizione = ricerca_lineare(sequenza, dimensione, ...</tspan>
            </text>
                   
                   
                </g>
            <g>
               <rect x="25" y="13.75"
            width="216.6" height="24"
            style="fill:#fff59d; stroke:#444; stroke-width:1" />
               <circle cx="25" cy="25" r="15"
        style="fill:#fff59d; stroke:#444; stroke-width:1" />
               <title>Program: source module</title>
            <text x="55" y="30"
                font-family="monospace" font-size="13" fill="#222">
                <tspan x="55" y="30">Program: source module</tspan>
            </text>
            </g>
            <g>
               <path d="M25, 40 L25 76 Q25 80
                29 80
                L42 80 "
        style="fill:none; stroke:#444; stroke-width:1" />
               <path d="M42, 77 L50, 80 L42, 83 Z" 
        fill="#333" />
            </g>
            <g>
               <path d="M25, 40 L25 139.5 Q25 143.5
                29 143.5
                L42 143.5 "
        style="fill:none; stroke:#444; stroke-width:1" />
               <path d="M42, 140.5 L50, 143.5 L42, 146.5 Z" 
        fill="#333" />
            </g>
            <g>
               <path d="M68.5, 158.5 L68.5 188 Q68.5 192
                72.5 192
                L79 192 "
        style="fill:none; stroke:#444; stroke-width:1" />
               <path d="M79, 189 L87, 192 L79, 195 Z" 
        fill="#333" />
            </g>
            <g>
               <path d="M68.5, 158.5 L68.5 271.5 Q68.5 275.5
                72.5 275.5
                L79 275.5 "
        style="fill:none; stroke:#444; stroke-width:1" />
               <path d="M79, 272.5 L87, 275.5 L79, 278.5 Z" 
        fill="#333" />
            </g>
            <g>
               <path d="M117, 305.5 L117 326.5 Q117 330.5
                121 330.5
                L129 330.5 "
        style="fill:none; stroke:#444; stroke-width:1" />
               <path d="M129, 327.5 L137, 330.5 L129, 333.5 Z" 
        fill="#333" />
            </g>
            <g>
               <path d="M117, 305.5 L117 390 Q117 394
                121 394
                L129 394 "
        style="fill:none; stroke:#444; stroke-width:1" />
               <path d="M129, 391 L137, 394 L129, 397 Z" 
        fill="#333" />
            </g>
            <g>
               <path d="M167, 424 L167 445 Q167 449
                171 449
                L179 449 "
        style="fill:none; stroke:#444; stroke-width:1" />
               <path d="M179, 446 L187, 449 L179, 452 Z" 
        fill="#333" />
            </g>
            <g>
               <path d="M422, 394 L458 394  Q462 394
                462 398
                L462 441 Q462 449
                466 449
                L474 449 "
        style="fill:none; stroke:#444; stroke-width:1" />
               <path d="M474, 446 L482, 449 L474, 452 Z" 
        fill="#333" />
            </g>
            <g>
               <path d="M707, 449 L723 449  Q727 449
                727 445
                L727 233.5 Q727 225.5
                723 225.5
                L125 225.5  Q117 225.5
                117 229.5
                L117 237.5"
        style="fill:none; stroke:#444; stroke-width:1" />
               <path d="M114, 237.5 L117, 245.5 L120, 237.5 Z" 
        fill="#333" />
            </g>
            <g>
               <path d="M68.5, 158.5 L68.5 495 Q68.5 499
                72.5 499
                L79 499 "
        style="fill:none; stroke:#444; stroke-width:1" />
               <path d="M79, 496 L87, 499 L79, 502 Z" 
        fill="#333" />
            </g>
            <g>
               <path d="M25, 40 L25 543.5 Q25 547.5
                29 547.5
                L42 547.5 "
        style="fill:none; stroke:#444; stroke-width:1" />
               <path d="M42, 544.5 L50, 547.5 L42, 550.5 Z" 
        fill="#333" />
            </g>
            <g>
               <path d="M25, 40 L25 592 Q25 596
                29 596
                L42 596 "
        style="fill:none; stroke:#444; stroke-width:1" />
               <path d="M42, 593 L50, 596 L42, 599 Z" 
        fill="#333" />
            </g>
            <g>
               <path d="M25, 40 L25 640.5 Q25 644.5
                29 644.5
                L42 644.5 "
        style="fill:none; stroke:#444; stroke-width:1" />
               <path d="M42, 641.5 L50, 644.5 L42, 647.5 Z" 
        fill="#333" />
            </g>
            <g>
               <path d="M25, 40 L25 689 Q25 693
                29 693
                L42 693 "
        style="fill:none; stroke:#444; stroke-width:1" />
               <path d="M42, 690 L50, 693 L42, 696 Z" 
        fill="#333" />
            </g>
            </svg>