<!DOCTYPE svg PUBLIC "-//W3C//DTD SVG 1.1//EN" "http://www.w3.org/Graphics/SVG/1.1/DTD/svg11.dtd">
                <svg xmlns="http://www.w3.org/2000/svg" xmlns:xlink="http://www.w3.org/1999/xlink" 
                width="732" height="491">
                
            <g>
                <rect x="50" y="80"
            width="307.4" height="30"
            style="fill:#a5d6a7; stroke:#444; stroke-width:1" />
                    
                <line x1="60" y1="80" x2="60" y2="110"
                style="fill:#a5d6a7; stroke:#444; stroke-width:1" />
                <line x1="347.4" y1="80" x2="347.4" y2="110"
                style="fill:#a5d6a7; stroke:#444; stroke-width:1" />
             
                <title>function ricerca_lineare(A, n, v)</title>
            <text x="75" y="100"
                font-family="monospace" font-size="13" fill="#222">
                <tspan x="75" y="100">function ricerca_lineare(A, n, v)</tspan>
            </text>
                
            </g>
                <g>
                   <rect x="87" y="128.5"
            width="162.6" height="30"
            rx="3" ry="3"
            style="fill:#90caf9; stroke:#444; stroke-width:1" />
                   <title>let posizione = 1</title>
            <text x="102" y="148.5"
                font-family="monospace" font-size="13" fill="#222">
                <tspan x="102" y="148.5">let posizione = 1</tspan>
            </text>
                   
                   
                </g><g>

            <rect x="117" y="212"
            width="169.2" height="30"
            rx="3" ry="3"
            style="fill:#b39ddb; stroke:#444; stroke-width:1" />
            <polygon points="87,227 117,197 147,227 117,257"
            style="fill:#b39ddb; stroke:#444; stroke-width:1" />
                
            <title>posizione &lt;= n</title>
            <text x="162" y="232"
                font-family="monospace" font-size="13" fill="#222">
                <tspan x="162" y="232">posizione &lt;= n</tspan>
            </text>
            
            <text x="97.5" y="232"
        font-family="monospace" font-size="13" fill="#222">while</text>
        </g>
                <g>
                   <rect x="137" y="267"
            width="310.8" height="30"
            rx="3" ry="3"
            style="fill:#90caf9; stroke:#444; stroke-width:1" />
                   <title>let elemento_corrente = A[posizione]</title>
            <text x="152" y="287"
                font-family="monospace" font-size="13" fill="#222">
                <tspan x="152" y="287">let elemento_corrente = A[posizione]</tspan>
            </text>
                   
                   
                </g><g>
            <rect x="167" y="330.5"
            width="255" height="30"
            rx="3" ry="3"
            style="fill:#ce93d8; stroke:#444; stroke-width:1" />                
            <polygon points="137,345.5 167,315.5 197,345.5 167,375.5"
            style="fill:#ce93d8; stroke:#444; stroke-width:1" />
            <title>(elemento_corrente === v)</title>
            <text x="212" y="350.5"
                font-family="monospace" font-size="13" fill="#222">
                <tspan x="212" y="350.5">(elemento_corrente === v)</tspan>
            </text>
            
            <text x="159.2" y="350.5"
        font-family="monospace" font-size="13" fill="#222">if</text> <text x="174.8" y="377.45"
        font-family="monospace" font-size="13" fill="#222">+</text> <text x="425.9" y="343.55"
        font-family="monospace" font-size="13" fill="#222">-</text>
        </g>
            <g>
                <rect x="187" y="385.5"
            width="154.8" height="30"
            rx="3" ry="3"
            style="fill:#90caf9; stroke:#444; stroke-width:1" />
                
                <line x1="341.8" y1="395.5" x2="346.8" y2="395.5"
                style="fill:#a5d6a7; stroke:#444; stroke-width:1" />
                
                <line x1="341.8" y1="405.5" x2="346.8" y2="405.5"
                style="fill:#a5d6a7; stroke:#444; stroke-width:1" />

                <path d="M346.8, 389.5 L362.8, 400.5 L346.8, 411.5 Z" 
        fill="#a5d6a7" stroke="#444" stroke-width="1" />
                             
                <title>return posizione</title>
            <text x="202" y="405.5"
                font-family="monospace" font-size="13" fill="#222">
                <tspan x="202" y="405.5">return posizione</tspan>
            </text>
                
            </g>
                <g>
                   <rect x="482" y="385.5"
            width="225" height="30"
            rx="3" ry="3"
            style="fill:#90caf9; stroke:#444; stroke-width:1" />
                   <title>posizione = posizione + 1</title>
            <text x="497" y="405.5"
                font-family="monospace" font-size="13" fill="#222">
                <tspan x="497" y="405.5">posizione = posizione + 1</tspan>
            </text>
                   
                   
                </g>
            <g>
                <rect x="87" y="435.5"
            width="178.2" height="30"
            rx="3" ry="3"
            style="fill:#90caf9; stroke:#444; stroke-width:1" />
                
                <line x1="265.2" y1="445.5" x2="270.2" y2="445.5"
                style="fill:#a5d6a7; stroke:#444; stroke-width:1" />
                
                <line x1="265.2" y1="455.5" x2="270.2" y2="455.5"
                style="fill:#a5d6a7; stroke:#444; stroke-width:1" />

                <path d="M270.2, 439.5 L286.2, 450.5 L270.2, 461.5 Z" 
        fill="#a5d6a7" stroke="#444" stroke-width="1" />
                             
                <title>return NON_PRESENTE</title>
            <text x="102" y="455.5"
                font-family="monospace" font-size="13" fill="#222">
                <tspan x="102" y="455.5">return NON_PRESENTE</tspan>
            </text>
                
            </g>
            <g>
               <rect x="25" y="13.75"
            width="216.6" height="24"
            style="fill:#fff59d; stroke:#444; stroke-width:1" />
               <circle cx="25" cy="25" r="15"
        style="fill:#fff59d; stroke:#444; stroke-width:1" />
               <title>Program: source module</title>
            <text x="55" y="30"
                font-family="monospace" font-size="13" fill="#222">
                <tspan x="55" y="30">Program: source module</tspan>
            </text>
            </g>
            <g>
               <path d="M25, 40 L25 91 Q25 95
                29 95
                L42 95 "
        style="fill:none; stroke:#444; stroke-width:1" />
               <path d="M42, 92 L50, 95 L42, 98 Z" 
        fill="#333" />
            </g>
            <g>
               <path d="M68.5, 110 L68.5 139.5 Q68.5 143.5
                72.5 143.5
                L79 143.5 "
        style="fill:none; stroke:#444; stroke-width:1" />
               <path d="M79, 140.5 L87, 143.5 L79, 146.5 Z" 
        fill="#333" />
            </g>
            <g>
               <path d="M68.5, 110 L68.5 223 Q68.5 227
                72.5 227
                L79 227 "
        style="fill:none; stroke:#444; stroke-width:1" />
               <path d="M79, 224 L87, 227 L79, 230 Z" 
        fill="#333" />
            </g>
            <g>
               <path d="M117, 257 L117 278 Q117 282
                121 282
                L129 282 "
        style="fill:none; stroke:#444; stroke-width:1" />
               <path d="M129, 279 L137, 282 L129, 285 Z" 
        fill="#333" />
            </g>
            <g>
               <path d="M117, 257 L117 341.5 Q117 345.5
                121 345.5
                L129 345.5 "
        style="fill:none; stroke:#444; stroke-width:1" />
               <path d="M129, 342.5 L137, 345.5 L129, 348.5 Z" 
        fill="#333" />
            </g>
            <g>
               <path d="M167, 375.5 L167 396.5 Q167 400.5
                171 400.5
                L179 400.5 "
        style="fill:none; stroke:#444; stroke-width:1" />
               <path d="M179, 397.5 L187, 400.5 L179, 403.5 Z" 
        fill="#333" />
            </g>
            <g>
               <path d="M422, 345.5 L458 345.5  Q462 345.5
                462 349.5
                L462 392.5 Q462 400.5
                466 400.5
                L474 400.5 "
        style="fill:none; stroke:#444; stroke-width:1" />
               <path d="M474, 397.5 L482, 400.5 L474, 403.5 Z" 
        fill="#333" />
            </g>
            <g>
               <path d="M707, 400.5 L723 400.5  Q727 400.5
                727 396.5
                L727 185 Q727 177
                723 177
                L125 177  Q117 177
                117 181
                L117 189"
        style="fill:none; stroke:#444; stroke-width:1" />
               <path d="M114, 189 L117, 197 L120, 189 Z" 
        fill="#333" />
            </g>
            <g>
               <path d="M68.5, 110 L68.5 446.5 Q68.5 450.5
                72.5 450.5
                L79 450.5 "
        style="fill:none; stroke:#444; stroke-width:1" />
               <path d="M79, 447.5 L87, 450.5 L79, 453.5 Z" 
        fill="#333" />
            </g>
            </svg>