<!DOCTYPE svg PUBLIC "-//W3C//DTD SVG 1.1//EN" "http://www.w3.org/Graphics/SVG/1.1/DTD/svg11.dtd">
                <svg xmlns="http://www.w3.org/2000/svg" xmlns:xlink="http://www.w3.org/1999/xlink" 
                width="1501" height="589">
                
            <g>
                <rect x="50" y="80"
            width="307.4" height="30"
            style="fill:#a5d6a7; stroke:#444; stroke-width:1" />
                    
                <line x1="60" y1="80" x2="60" y2="110"
                style="fill:#a5d6a7; stroke:#444; stroke-width:1" />
                <line x1="347.4" y1="80" x2="347.4" y2="110"
                style="fill:#a5d6a7; stroke:#444; stroke-width:1" />
             
                <title>function ricerca_binaria(A, n, v)</title>
            <text x="75" y="100"
                font-family="monospace" font-size="13" fill="#222">
                <tspan x="75" y="100">function ricerca_binaria(A, n, v)</tspan>
            </text>
                
            </g>
            <g>
                <rect x="87" y="128.5"
            width="463.4" height="30"
            style="fill:#a5d6a7; stroke:#444; stroke-width:1" />
                    
                <line x1="97" y1="128.5" x2="97" y2="158.5"
                style="fill:#a5d6a7; stroke:#444; stroke-width:1" />
                <line x1="540.4" y1="128.5" x2="540.4" y2="158.5"
                style="fill:#a5d6a7; stroke:#444; stroke-width:1" />
             
                <title>function ricerca_binaria_passo(A, v, sinistra, destra)</title>
            <text x="112" y="148.5"
                font-family="monospace" font-size="13" fill="#222">
                <tspan x="112" y="148.5">function ricerca_binaria_passo(A, v, sinistra, des...</tspan>
            </text>
                
            </g><g>
            <rect x="154" y="192"
            width="216" height="30"
            rx="3" ry="3"
            style="fill:#ce93d8; stroke:#444; stroke-width:1" />                
            <polygon points="124,207 154,177 184,207 154,237"
            style="fill:#ce93d8; stroke:#444; stroke-width:1" />
            <title>(sinistra &lt;= destra)</title>
            <text x="199" y="212"
                font-family="monospace" font-size="13" fill="#222">
                <tspan x="199" y="212">(sinistra &lt;= destra)</tspan>
            </text>
            
            <text x="146.2" y="212"
        font-family="monospace" font-size="13" fill="#222">if</text> <text x="161.8" y="238.95"
        font-family="monospace" font-size="13" fill="#222">+</text> 
        </g>
                <g>
                   <rect x="174" y="247"
            width="310.8" height="30"
            rx="3" ry="3"
            style="fill:#90caf9; stroke:#444; stroke-width:1" />
                   <title>let centro = (sinistra + destra) / 2</title>
            <text x="189" y="267"
                font-family="monospace" font-size="13" fill="#222">
                <tspan x="189" y="267">let centro = (sinistra + destra) / 2</tspan>
            </text>
                   
                   
                </g><g>
            <rect x="204" y="310.5"
            width="177" height="30"
            rx="3" ry="3"
            style="fill:#ce93d8; stroke:#444; stroke-width:1" />                
            <polygon points="174,325.5 204,295.5 234,325.5 204,355.5"
            style="fill:#ce93d8; stroke:#444; stroke-width:1" />
            <title>(A[centro] &gt; v)</title>
            <text x="249" y="330.5"
                font-family="monospace" font-size="13" fill="#222">
                <tspan x="249" y="330.5">(A[centro] &gt; v)</tspan>
            </text>
            
            <text x="196.2" y="330.5"
        font-family="monospace" font-size="13" fill="#222">if</text> <text x="211.8" y="357.45"
        font-family="monospace" font-size="13" fill="#222">+</text> <text x="384.9" y="323.55"
        font-family="monospace" font-size="13" fill="#222">-</text>
        </g>
            <g>
                <rect x="224" y="365.5"
            width="443.4" height="30"
            rx="3" ry="3"
            style="fill:#90caf9; stroke:#444; stroke-width:1" />
                
                <line x1="667.4" y1="375.5" x2="672.4" y2="375.5"
                style="fill:#a5d6a7; stroke:#444; stroke-width:1" />
                
                <line x1="667.4" y1="385.5" x2="672.4" y2="385.5"
                style="fill:#a5d6a7; stroke:#444; stroke-width:1" />

                <path d="M672.4, 369.5 L688.4, 380.5 L672.4, 391.5 Z" 
        fill="#a5d6a7" stroke="#444" stroke-width="1" />
                             
                <title>return ricerca_binaria_passo(A, v, sinistra, centro - 1)</title>
            <text x="239" y="385.5"
                font-family="monospace" font-size="13" fill="#222">
                <tspan x="239" y="385.5">return ricerca_binaria_passo(A, v, sinistra, centr...</tspan>
            </text>
                
            </g><g>
            <rect x="778.4" y="380.5"
            width="177" height="30"
            rx="3" ry="3"
            style="fill:#ce93d8; stroke:#444; stroke-width:1" />                
            <polygon points="748.4,395.5 778.4,365.5 808.4,395.5 778.4,425.5"
            style="fill:#ce93d8; stroke:#444; stroke-width:1" />
            <title>(A[centro] &lt; v)</title>
            <text x="823.4" y="400.5"
                font-family="monospace" font-size="13" fill="#222">
                <tspan x="823.4" y="400.5">(A[centro] &lt; v)</tspan>
            </text>
            
            <text x="770.6" y="400.5"
        font-family="monospace" font-size="13" fill="#222">if</text> <text x="786.1999999999999" y="427.45"
        font-family="monospace" font-size="13" fill="#222">+</text> <text x="959.3" y="393.55"
        font-family="monospace" font-size="13" fill="#222">-</text>
        </g>
            <g>
                <rect x="798.4" y="435.5"
            width="443.4" height="30"
            rx="3" ry="3"
            style="fill:#90caf9; stroke:#444; stroke-width:1" />
                
                <line x1="1241.8" y1="445.5" x2="1246.8" y2="445.5"
                style="fill:#a5d6a7; stroke:#444; stroke-width:1" />
                
                <line x1="1241.8" y1="455.5" x2="1246.8" y2="455.5"
                style="fill:#a5d6a7; stroke:#444; stroke-width:1" />

                <path d="M1246.8, 439.5 L1262.8, 450.5 L1246.8, 461.5 Z" 
        fill="#a5d6a7" stroke="#444" stroke-width="1" />
                             
                <title>return ricerca_binaria_passo(A, v, centro + 1, destra)</title>
            <text x="813.4" y="455.5"
                font-family="monospace" font-size="13" fill="#222">
                <tspan x="813.4" y="455.5">return ricerca_binaria_passo(A, v, centro + 1, des...</tspan>
            </text>
                
            </g>
            <g>
                <rect x="1322.8" y="435.5"
            width="131.39999999999998" height="30"
            rx="3" ry="3"
            style="fill:#90caf9; stroke:#444; stroke-width:1" />
                
                <line x1="1454.1999999999998" y1="445.5" x2="1459.1999999999998" y2="445.5"
                style="fill:#a5d6a7; stroke:#444; stroke-width:1" />
                
                <line x1="1454.1999999999998" y1="455.5" x2="1459.1999999999998" y2="455.5"
                style="fill:#a5d6a7; stroke:#444; stroke-width:1" />

                <path d="M1459.1999999999998, 439.5 L1475.1999999999998, 450.5 L1459.1999999999998, 461.5 Z" 
        fill="#a5d6a7" stroke="#444" stroke-width="1" />
                             
                <title>return centro</title>
            <text x="1337.8" y="455.5"
                font-family="monospace" font-size="13" fill="#222">
                <tspan x="1337.8" y="455.5">return centro</tspan>
            </text>
                
            </g>
            <g>
                <rect x="124" y="485.5"
            width="178.2" height="30"
            rx="3" ry="3"
            style="fill:#90caf9; stroke:#444; stroke-width:1" />
                
                <line x1="302.2" y1="495.5" x2="307.2" y2="495.5"
                style="fill:#a5d6a7; stroke:#444; stroke-width:1" />
                
                <line x1="302.2" y1="505.5" x2="307.2" y2="505.5"
                style="fill:#a5d6a7; stroke:#444; stroke-width:1" />

                <path d="M307.2, 489.5 L323.2, 500.5 L307.2, 511.5 Z" 
        fill="#a5d6a7" stroke="#444" stroke-width="1" />
                             
                <title>return NON_PRESENTE</title>
            <text x="139" y="505.5"
                font-family="monospace" font-size="13" fill="#222">
                <tspan x="139" y="505.5">return NON_PRESENTE</tspan>
            </text>
                
            </g>
            <g>
                <rect x="87" y="534"
            width="342" height="30"
            rx="3" ry="3"
            style="fill:#90caf9; stroke:#444; stroke-width:1" />
                
                <line x1="429" y1="544" x2="434" y2="544"
                style="fill:#a5d6a7; stroke:#444; stroke-width:1" />
                
                <line x1="429" y1="554" x2="434" y2="554"
                style="fill:#a5d6a7; stroke:#444; stroke-width:1" />

                <path d="M434, 538 L450, 549 L434, 560 Z" 
        fill="#a5d6a7" stroke="#444" stroke-width="1" />
                             
                <title>return ricerca_binaria_passo(A, v, 1, n)</title>
            <text x="102" y="554"
                font-family="monospace" font-size="13" fill="#222">
                <tspan x="102" y="554">return ricerca_binaria_passo(A, v, 1, n)</tspan>
            </text>
                
            </g>
            <g>
               <rect x="25" y="13.75"
            width="216.6" height="24"
            style="fill:#fff59d; stroke:#444; stroke-width:1" />
               <circle cx="25" cy="25" r="15"
        style="fill:#fff59d; stroke:#444; stroke-width:1" />
               <title>Program: source module</title>
            <text x="55" y="30"
                font-family="monospace" font-size="13" fill="#222">
                <tspan x="55" y="30">Program: source module</tspan>
            </text>
            </g>
            <g>
               <path d="M25, 40 L25 91 Q25 95
                29 95
                L42 95 "
        style="fill:none; stroke:#444; stroke-width:1" />
               <path d="M42, 92 L50, 95 L42, 98 Z" 
        fill="#333" />
            </g>
            <g>
               <path d="M68.5, 110 L68.5 139.5 Q68.5 143.5
                72.5 143.5
                L79 143.5 "
        style="fill:none; stroke:#444; stroke-width:1" />
               <path d="M79, 140.5 L87, 143.5 L79, 146.5 Z" 
        fill="#333" />
            </g>
            <g>
               <path d="M105.5, 158.5 L105.5 203 Q105.5 207
                109.5 207
                L116 207 "
        style="fill:none; stroke:#444; stroke-width:1" />
               <path d="M116, 204 L124, 207 L116, 210 Z" 
        fill="#333" />
            </g>
            <g>
               <path d="M154, 237 L154 258 Q154 262
                158 262
                L166 262 "
        style="fill:none; stroke:#444; stroke-width:1" />
               <path d="M166, 259 L174, 262 L166, 265 Z" 
        fill="#333" />
            </g>
            <g>
               <path d="M154, 237 L154 321.5 Q154 325.5
                158 325.5
                L166 325.5 "
        style="fill:none; stroke:#444; stroke-width:1" />
               <path d="M166, 322.5 L174, 325.5 L166, 328.5 Z" 
        fill="#333" />
            </g>
            <g>
               <path d="M204, 355.5 L204 376.5 Q204 380.5
                208 380.5
                L216 380.5 "
        style="fill:none; stroke:#444; stroke-width:1" />
               <path d="M216, 377.5 L224, 380.5 L216, 383.5 Z" 
        fill="#333" />
            </g>
            <g>
               <path d="M381, 325.5 L724.4 325.5  Q728.4 325.5
                728.4 329.5
                L728.4 387.5 Q728.4 395.5
                732.4 395.5
                L740.4 395.5 "
        style="fill:none; stroke:#444; stroke-width:1" />
               <path d="M740.4, 392.5 L748.4, 395.5 L740.4, 398.5 Z" 
        fill="#333" />
            </g>
            <g>
               <path d="M778.4, 425.5 L778.4 446.5 Q778.4 450.5
                782.4 450.5
                L790.4 450.5 "
        style="fill:none; stroke:#444; stroke-width:1" />
               <path d="M790.4, 447.5 L798.4, 450.5 L790.4, 453.5 Z" 
        fill="#333" />
            </g>
            <g>
               <path d="M955.4, 395.5 L1298.8 395.5  Q1302.8 395.5
                1302.8 399.5
                L1302.8 442.5 Q1302.8 450.5
                1306.8 450.5
                L1314.8 450.5 "
        style="fill:none; stroke:#444; stroke-width:1" />
               <path d="M1314.8, 447.5 L1322.8, 450.5 L1314.8, 453.5 Z" 
        fill="#333" />
            </g>
            <g>
               <path d="M105.5, 158.5 L105.5 496.5 Q105.5 500.5
                109.5 500.5
                L116 500.5 "
        style="fill:none; stroke:#444; stroke-width:1" />
               <path d="M116, 497.5 L124, 500.5 L116, 503.5 Z" 
        fill="#333" />
            </g>
            <g>
               <path d="M68.5, 110 L68.5 545 Q68.5 549
                72.5 549
                L79 549 "
        style="fill:none; stroke:#444; stroke-width:1" />
               <path d="M79, 546 L87, 549 L79, 552 Z" 
        fill="#333" />
            </g>
            </svg>