<!DOCTYPE svg PUBLIC "-//W3C//DTD SVG 1.1//EN" "http://www.w3.org/Graphics/SVG/1.1/DTD/svg11.dtd">
                <svg xmlns="http://www.w3.org/2000/svg" xmlns:xlink="http://www.w3.org/1999/xlink" 
                width="1148" height="492">
                
            <g>
                <rect x="50" y="80"
            width="229.4" height="30"
            style="fill:#a5d6a7; stroke:#444; stroke-width:1" />
                    
                <line x1="60" y1="80" x2="60" y2="110"
                style="fill:#a5d6a7; stroke:#444; stroke-width:1" />
                <line x1="269.4" y1="80" x2="269.4" y2="110"
                style="fill:#a5d6a7; stroke:#444; stroke-width:1" />
             
                <title>function ordinata(A, n)</title>
            <text x="75" y="100"
                font-family="monospace" font-size="13" fill="#222">
                <tspan x="75" y="100">function ordinata(A, n)</tspan>
            </text>
                
            </g>
            <g>
                <rect x="87" y="128.5"
            width="338.59999999999997" height="30"
            style="fill:#a5d6a7; stroke:#444; stroke-width:1" />
                    
                <line x1="97" y1="128.5" x2="97" y2="158.5"
                style="fill:#a5d6a7; stroke:#444; stroke-width:1" />
                <line x1="415.59999999999997" y1="128.5" x2="415.59999999999997" y2="158.5"
                style="fill:#a5d6a7; stroke:#444; stroke-width:1" />
             
                <title>function passo_ordinata(A, n, coppia)</title>
            <text x="112" y="148.5"
                font-family="monospace" font-size="13" fill="#222">
                <tspan x="112" y="148.5">function passo_ordinata(A, n, coppia)</tspan>
            </text>
                
            </g><g>
            <rect x="154" y="192"
            width="192.6" height="30"
            rx="3" ry="3"
            style="fill:#ce93d8; stroke:#444; stroke-width:1" />                
            <polygon points="124,207 154,177 184,207 154,237"
            style="fill:#ce93d8; stroke:#444; stroke-width:1" />
            <title>(coppia &gt;= n - 1)</title>
            <text x="199" y="212"
                font-family="monospace" font-size="13" fill="#222">
                <tspan x="199" y="212">(coppia &gt;= n - 1)</tspan>
            </text>
            
            <text x="146.2" y="212"
        font-family="monospace" font-size="13" fill="#222">if</text> <text x="161.8" y="238.95"
        font-family="monospace" font-size="13" fill="#222">+</text> <text x="350.5" y="205.05"
        font-family="monospace" font-size="13" fill="#222">-</text>
        </g>
            <g>
                <rect x="174" y="247"
            width="115.80000000000001" height="30"
            rx="3" ry="3"
            style="fill:#90caf9; stroke:#444; stroke-width:1" />
                
                <line x1="289.8" y1="257" x2="294.8" y2="257"
                style="fill:#a5d6a7; stroke:#444; stroke-width:1" />
                
                <line x1="289.8" y1="267" x2="294.8" y2="267"
                style="fill:#a5d6a7; stroke:#444; stroke-width:1" />

                <path d="M294.8, 251 L310.8, 262 L294.8, 273 Z" 
        fill="#a5d6a7" stroke="#444" stroke-width="1" />
                             
                <title>return true</title>
            <text x="189" y="267"
                font-family="monospace" font-size="13" fill="#222">
                <tspan x="189" y="267">return true</tspan>
            </text>
                
            </g><g>
            <rect x="436.6" y="262"
            width="270.6" height="30"
            rx="3" ry="3"
            style="fill:#ce93d8; stroke:#444; stroke-width:1" />                
            <polygon points="406.6,277 436.6,247 466.6,277 436.6,307"
            style="fill:#ce93d8; stroke:#444; stroke-width:1" />
            <title>(A[coppia] &gt; A[coppia + 1])</title>
            <text x="481.6" y="282"
                font-family="monospace" font-size="13" fill="#222">
                <tspan x="481.6" y="282">(A[coppia] &gt; A[coppia + 1])</tspan>
            </text>
            
            <text x="428.8" y="282"
        font-family="monospace" font-size="13" fill="#222">if</text> <text x="444.40000000000003" y="308.95"
        font-family="monospace" font-size="13" fill="#222">+</text> <text x="711.1" y="275.05"
        font-family="monospace" font-size="13" fill="#222">-</text>
        </g>
            <g>
                <rect x="456.6" y="317"
            width="123.6" height="30"
            rx="3" ry="3"
            style="fill:#90caf9; stroke:#444; stroke-width:1" />
                
                <line x1="580.2" y1="327" x2="585.2" y2="327"
                style="fill:#a5d6a7; stroke:#444; stroke-width:1" />
                
                <line x1="580.2" y1="337" x2="585.2" y2="337"
                style="fill:#a5d6a7; stroke:#444; stroke-width:1" />

                <path d="M585.2, 321 L601.2, 332 L585.2, 343 Z" 
        fill="#a5d6a7" stroke="#444" stroke-width="1" />
                             
                <title>return false</title>
            <text x="471.6" y="337"
                font-family="monospace" font-size="13" fill="#222">
                <tspan x="471.6" y="337">return false</tspan>
            </text>
                
            </g>
            <g>
                <rect x="767.2" y="317"
            width="334.2" height="30"
            rx="3" ry="3"
            style="fill:#90caf9; stroke:#444; stroke-width:1" />
                
                <line x1="1101.4" y1="327" x2="1106.4" y2="327"
                style="fill:#a5d6a7; stroke:#444; stroke-width:1" />
                
                <line x1="1101.4" y1="337" x2="1106.4" y2="337"
                style="fill:#a5d6a7; stroke:#444; stroke-width:1" />

                <path d="M1106.4, 321 L1122.4, 332 L1106.4, 343 Z" 
        fill="#a5d6a7" stroke="#444" stroke-width="1" />
                             
                <title>return passo_ordinata(A, n, coppia + 1)</title>
            <text x="782.2" y="337"
                font-family="monospace" font-size="13" fill="#222">
                <tspan x="782.2" y="337">return passo_ordinata(A, n, coppia + 1)</tspan>
            </text>
                
            </g><g>
            <rect x="117" y="382"
            width="114.6" height="30"
            rx="3" ry="3"
            style="fill:#ce93d8; stroke:#444; stroke-width:1" />                
            <polygon points="87,397 117,367 147,397 117,427"
            style="fill:#ce93d8; stroke:#444; stroke-width:1" />
            <title>(n &lt; 2)</title>
            <text x="162" y="402"
                font-family="monospace" font-size="13" fill="#222">
                <tspan x="162" y="402">(n &lt; 2)</tspan>
            </text>
            
            <text x="109.2" y="402"
        font-family="monospace" font-size="13" fill="#222">if</text> <text x="124.8" y="428.95"
        font-family="monospace" font-size="13" fill="#222">+</text> <text x="235.5" y="395.05"
        font-family="monospace" font-size="13" fill="#222">-</text>
        </g>
            <g>
                <rect x="137" y="437"
            width="115.80000000000001" height="30"
            rx="3" ry="3"
            style="fill:#90caf9; stroke:#444; stroke-width:1" />
                
                <line x1="252.8" y1="447" x2="257.8" y2="447"
                style="fill:#a5d6a7; stroke:#444; stroke-width:1" />
                
                <line x1="252.8" y1="457" x2="257.8" y2="457"
                style="fill:#a5d6a7; stroke:#444; stroke-width:1" />

                <path d="M257.8, 441 L273.8, 452 L257.8, 463 Z" 
        fill="#a5d6a7" stroke="#444" stroke-width="1" />
                             
                <title>return true</title>
            <text x="152" y="457"
                font-family="monospace" font-size="13" fill="#222">
                <tspan x="152" y="457">return true</tspan>
            </text>
                
            </g>
            <g>
                <rect x="333.8" y="437"
            width="264" height="30"
            rx="3" ry="3"
            style="fill:#90caf9; stroke:#444; stroke-width:1" />
                
                <line x1="597.8" y1="447" x2="602.8" y2="447"
                style="fill:#a5d6a7; stroke:#444; stroke-width:1" />
                
                <line x1="597.8" y1="457" x2="602.8" y2="457"
                style="fill:#a5d6a7; stroke:#444; stroke-width:1" />

                <path d="M602.8, 441 L618.8, 452 L602.8, 463 Z" 
        fill="#a5d6a7" stroke="#444" stroke-width="1" />
                             
                <title>return passo_ordinata(A, n, 0)</title>
            <text x="348.8" y="457"
                font-family="monospace" font-size="13" fill="#222">
                <tspan x="348.8" y="457">return passo_ordinata(A, n, 0)</tspan>
            </text>
                
            </g>
            <g>
               <rect x="25" y="13.75"
            width="216.6" height="24"
            style="fill:#fff59d; stroke:#444; stroke-width:1" />
               <circle cx="25" cy="25" r="15"
        style="fill:#fff59d; stroke:#444; stroke-width:1" />
               <title>Program: source module</title>
            <text x="55" y="30"
                font-family="monospace" font-size="13" fill="#222">
                <tspan x="55" y="30">Program: source module</tspan>
            </text>
            </g>
            <g>
               <path d="M25, 40 L25 91 Q25 95
                29 95
                L42 95 "
        style="fill:none; stroke:#444; stroke-width:1" />
               <path d="M42, 92 L50, 95 L42, 98 Z" 
        fill="#333" />
            </g>
            <g>
               <path d="M68.5, 110 L68.5 139.5 Q68.5 143.5
                72.5 143.5
                L79 143.5 "
        style="fill:none; stroke:#444; stroke-width:1" />
               <path d="M79, 140.5 L87, 143.5 L79, 146.5 Z" 
        fill="#333" />
            </g>
            <g>
               <path d="M105.5, 158.5 L105.5 203 Q105.5 207
                109.5 207
                L116 207 "
        style="fill:none; stroke:#444; stroke-width:1" />
               <path d="M116, 204 L124, 207 L116, 210 Z" 
        fill="#333" />
            </g>
            <g>
               <path d="M154, 237 L154 258 Q154 262
                158 262
                L166 262 "
        style="fill:none; stroke:#444; stroke-width:1" />
               <path d="M166, 259 L174, 262 L166, 265 Z" 
        fill="#333" />
            </g>
            <g>
               <path d="M346.6, 207 L382.6 207  Q386.6 207
                386.6 211
                L386.6 269 Q386.6 277
                390.6 277
                L398.6 277 "
        style="fill:none; stroke:#444; stroke-width:1" />
               <path d="M398.6, 274 L406.6, 277 L398.6, 280 Z" 
        fill="#333" />
            </g>
            <g>
               <path d="M436.6, 307 L436.6 328 Q436.6 332
                440.6 332
                L448.6 332 "
        style="fill:none; stroke:#444; stroke-width:1" />
               <path d="M448.6, 329 L456.6, 332 L448.6, 335 Z" 
        fill="#333" />
            </g>
            <g>
               <path d="M707.2, 277 L743.2 277  Q747.2 277
                747.2 281
                L747.2 324 Q747.2 332
                751.2 332
                L759.2 332 "
        style="fill:none; stroke:#444; stroke-width:1" />
               <path d="M759.2, 329 L767.2, 332 L759.2, 335 Z" 
        fill="#333" />
            </g>
            <g>
               <path d="M68.5, 110 L68.5 393 Q68.5 397
                72.5 397
                L79 397 "
        style="fill:none; stroke:#444; stroke-width:1" />
               <path d="M79, 394 L87, 397 L79, 400 Z" 
        fill="#333" />
            </g>
            <g>
               <path d="M117, 427 L117 448 Q117 452
                121 452
                L129 452 "
        style="fill:none; stroke:#444; stroke-width:1" />
               <path d="M129, 449 L137, 452 L129, 455 Z" 
        fill="#333" />
            </g>
            <g>
               <path d="M231.6, 397 L309.8 397  Q313.8 397
                313.8 401
                L313.8 444 Q313.8 452
                317.8 452
                L325.8 452 "
        style="fill:none; stroke:#444; stroke-width:1" />
               <path d="M325.8, 449 L333.8, 452 L325.8, 455 Z" 
        fill="#333" />
            </g>
            </svg>